<svg width="100" height="100" viewBox="0 0 100 100" fill="none" xmlns="http://www.w3.org/2000/svg">
<path fill-rule="evenodd" clip-rule="evenodd" d="M23.9036 47.5962L21.5971 45.2898C18.5539 42.2421 13.6054 42.2421 10.5622 45.2898L5.04429 50.8075C1.99657 53.8551 1.99657 58.799 5.04429 61.8466L13.3207 70.1228L2.28579 81.1574C-0.761928 84.2051 -0.761928 89.1489 2.28579 92.1965L7.80369 97.7143C10.8469 100.762 15.7954 100.762 18.8386 97.7143L29.878 86.6796L38.1544 94.9558C41.2021 97.999 46.1461 97.999 49.1893 94.9558L54.7108 89.4381C57.754 86.3904 57.754 81.4466 54.7108 78.399L52.4043 76.0925L90.4271 48.138C91.2154 47.5562 91.758 46.7018 91.9453 45.7384L99.9292 4.64617C100.175 3.37451 99.7732 2.0592 98.8561 1.1421C97.9389 0.224934 96.628 -0.176601 95.3555 0.0725078L54.2577 8.05616C53.2978 8.24342 52.439 8.78605 51.858 9.57431L23.9028 47.5961L23.9036 47.5962ZM49.1898 83.9167L16.0792 50.8071L10.5613 56.3248L43.6719 89.4367L49.1898 83.9167ZM40.9134 64.605L74.3205 31.1988C75.8421 29.6772 75.8421 27.2026 74.3205 25.681C72.7988 24.1594 70.3242 24.1594 68.8026 25.681L35.3954 59.0873L40.9134 64.605Z" fill="white"/>
</svg>
