<svg width="100" height="101" viewBox="0 0 100 101" fill="none" xmlns="http://www.w3.org/2000/svg">
<path d="M92.8792 1.25556C92.0754 0.451824 90.9851 0 89.8487 0C88.7122 0 87.6219 0.451824 86.8182 1.25556L83.2166 4.85713C82.6526 5.42191 82.6526 6.33629 83.2166 6.90115L93.1005 16.7827C93.3717 17.0547 93.739 17.2068 94.1225 17.2068C94.5059 17.2068 94.8739 17.0547 95.1444 16.7827L98.7436 13.1835H98.7444C99.5481 12.3797 100 11.2886 100 10.1522C100 9.01496 99.5481 7.92463 98.7444 7.12087L92.8792 1.25556Z" fill="white"/>
<path d="M87.7372 19.0571L80.9407 12.2629C80.2921 11.6152 79.2417 11.6152 78.5931 12.2629L69.4123 21.4438L66.3096 18.3411H66.3103C65.2861 17.3191 63.6278 17.3191 62.6027 18.3411L60.6664 20.2775C60.0501 20.8945 60.0501 21.8949 60.6664 22.5127L77.4827 39.3314V39.3306C78.1013 39.9484 79.1025 39.9484 79.7203 39.3306L81.6567 37.3943C82.1484 36.9032 82.4251 36.2363 82.4251 35.5409C82.4251 34.8455 82.1484 34.1793 81.6567 33.6875L78.5561 30.5869L87.737 21.4045C88.0482 21.0933 88.2234 20.6707 88.2234 20.2304C88.2234 19.7901 88.0482 19.3682 87.737 19.057L87.7372 19.0571Z" fill="white"/>
<path d="M25.6318 76.2112C44.1911 70.983 64.8991 53.2649 73.6055 45.249C74.0128 44.8748 74.2487 44.3507 74.2602 43.7975C74.271 43.2442 74.055 42.711 73.6632 42.3206L68.8377 37.4951C68.6256 37.2807 68.3366 37.1601 68.0354 37.1601C67.7335 37.1601 67.4445 37.2807 67.2325 37.4951C54.7945 50.0946 45.2875 57.1646 40.0668 60.9469C39.7779 61.1536 39.3814 61.1198 39.1301 60.8685C38.8789 60.6165 38.8466 60.2208 39.054 59.9311C42.8299 54.7183 49.8977 45.2063 62.5058 32.7674C62.7194 32.5545 62.8393 32.2656 62.8393 31.9644C62.8393 31.6624 62.7195 31.3735 62.5058 31.1607L57.6796 26.3344C57.2884 25.944 56.7552 25.7289 56.2019 25.7396C55.6494 25.7512 55.1246 25.9863 54.7497 26.3928C46.7245 35.1004 29.018 55.8187 23.7894 74.3724C23.6434 74.8926 23.7902 75.4505 24.1721 75.8323C24.5547 76.2135 25.1134 76.3587 25.6328 76.2119L25.6318 76.2112Z" fill="white"/>
<path d="M18.9654 47.0548C19.295 47.5996 19.9313 47.8785 20.5544 47.7517C21.1784 47.625 21.6548 47.1194 21.7454 46.4893L23.7871 33.8467C24.0514 32.2161 21.8876 31.3986 21.007 32.7971L17.6183 38.1759C16.9828 39.1848 16.6462 40.3527 16.6462 41.5454C16.6462 42.7372 16.9828 43.9051 17.6183 44.914L18.9654 47.0548Z" fill="white"/>
<path d="M3.18131 100.078H63.0599C64.5314 100.078 64.8948 98.0342 63.5163 97.5241L43.6899 90.222C42.88 89.9231 42.2622 89.2546 42.0279 88.424C41.7927 87.5933 41.9702 86.7004 42.5043 86.0219L45.1805 82.6271C45.6562 82.0285 45.7345 81.2056 45.3811 80.5278C45.0276 79.8493 44.3084 79.4428 43.5454 79.4897L22.9813 80.6684V80.6692C22.0031 80.7222 21.0488 80.3557 20.3572 79.6626C19.6648 78.9687 19.3022 78.0129 19.3575 77.0355L20.5923 56.4616L20.5931 56.4608C20.6415 55.6971 20.2358 54.9763 19.5573 54.6213C18.8788 54.267 18.055 54.3454 17.4556 54.8218L14.0563 57.4981C13.3785 58.0321 12.4857 58.2089 11.6558 57.9745C10.8252 57.7401 10.1574 57.1223 9.85853 56.3124L2.55409 36.486C2.04618 35.1044 0 35.4702 0 36.9424L0.000768399 96.8978C0.000768399 97.7415 0.335785 98.5498 0.932073 99.1462C1.52834 99.7432 2.33747 100.078 3.18047 100.078L3.18131 100.078Z" fill="white"/>
<path d="M52.9451 81.1132L55.0798 82.4579C56.0887 83.0941 57.2566 83.4315 58.4492 83.4315C59.641 83.4315 60.8097 83.0941 61.8179 82.4579L67.1967 79.0692C68.5952 78.1893 67.7776 76.0247 66.1471 76.2891L53.5045 78.3307V78.3315C52.8745 78.4229 52.3696 78.9009 52.2436 79.5248C52.1183 80.1495 52.3988 80.7858 52.9451 81.1131L52.9451 81.1132Z" fill="white"/>
</svg>
