<svg width="102" height="131" viewBox="0 0 102 131" fill="none" xmlns="http://www.w3.org/2000/svg">
<path d="M100.621 11.9485C96.9045 11.5517 94.2287 10.2163 92.6735 7.96624C91.3092 6.00194 91.0624 3.68559 91.1182 2L90.2653 3.0496C90.345 4.69941 90.752 6.67958 91.9719 8.44442C93.6178 10.8293 96.3652 12.2689 100.145 12.7451L100.154 72.1129C100.13 72.2875 98.3505 89.3204 84.1506 101.223C70.6013 112.584 53.2247 127.181 51.0008 129.055C48.7708 127.179 31.3995 112.582 17.8459 101.223C3.646 89.3201 1.86279 72.2882 1.84572 72.1561V12.7426C6.15242 12.2178 9.32092 10.7118 11.2644 8.25953C12.35 6.89939 12.8575 5.46891 13.1073 4.30802L12.4107 3.20684C12.2923 4.37151 11.8933 6.10564 10.6016 7.73358C8.74278 10.0719 5.64609 11.4916 1.37914 11.9459L1 11.9856V72.1941C1.01692 72.3687 2.827 89.7319 17.2995 101.863C31.8049 114.027 50.6888 129.896 50.6888 129.896L50.8092 130H51.1913L51.3087 129.898C51.3087 129.898 70.1946 114.03 84.7005 101.865C99.1692 89.7326 100.98 72.3687 101 72.1554V11.9876L100.621 11.9485Z" fill="#F4D083" stroke="#F4D083"/>
<path d="M5.80057 16.6121L5.41846 16.6558V71.7112C5.44234 71.866 7.09717 87.7549 20.3319 98.8453C33.5875 109.96 50.8477 124.468 50.8477 124.468L50.9671 124.563H51.3382L51.4566 124.468C51.4566 124.468 68.7224 109.958 81.9749 98.8453C95.2076 87.7559 96.8624 71.8661 96.8825 71.668V16.6583L96.5044 16.6147C93.1232 16.2535 90.6822 15.0363 89.2702 12.9936C87.4213 10.3299 87.8283 6.95875 88.0263 5.823L87.0203 7.06308C86.8989 8.74859 87.0521 11.2813 88.5666 13.47C90.0732 15.6485 92.5847 16.977 96.0309 17.4133V71.6332C96.015 71.786 94.389 87.3366 81.4229 98.2035C69.0877 108.548 53.2813 121.83 51.1517 123.621C49.0232 121.832 33.2172 108.548 20.8805 98.2035C7.92246 87.3364 6.28241 71.7856 6.27146 71.6688V17.4133C9.95225 16.953 12.5774 15.6097 14.0781 13.4143C15.3747 11.5215 15.5389 9.43007 15.4543 8.02435L15.1637 7.56304L14.2781 6.16819L14.3955 6.60172C14.4064 6.63446 15.3229 10.0958 13.3765 12.9311C11.9705 14.9887 9.42596 16.2287 5.80096 16.6147L5.80057 16.6121Z" fill="#F4D083" stroke="#F4D083"/>
<path d="M14.8363 2.12402H87.4637V2.91074H14.8363V2.12402Z" fill="#F4D083" stroke="#F4D083"/>
</svg>
