<svg width="100" height="100" viewBox="0 0 100 100" fill="none" xmlns="http://www.w3.org/2000/svg">
<path d="M52.9766 4.75151C52.1108 5.11447 50.9506 5.68382 49.73 6.30304C47.3104 7.53384 46.6505 10.6001 48.2366 12.7939C48.3208 12.9098 48.4035 13.0279 48.4808 13.1507L56.0865 24.7204V24.7197C56.4568 25.2837 57.0389 25.6765 57.7021 25.81C58.3662 25.9443 59.0565 25.8085 59.6192 25.4333C69.9589 18.5197 83.4273 12.3082 97.9782 12.8275C98.6669 12.859 99.3201 12.5244 99.6927 11.9497C100.065 11.3742 100.102 10.6453 99.7878 10.0368C97.7748 6.19092 92.8122 0.658476 78.4533 0.0438261C69.7137 -0.293023 61.0089 1.3153 52.9769 4.75143L52.9766 4.75151Z" fill="white"/>
<path d="M9.9791 93.909C12.3831 95.0247 15.0083 95.5964 17.6628 95.5803C22.9609 95.591 35.043 95.017 44.0177 90.0631C46.0067 88.9628 45.1819 85.9356 42.9077 86.0323C36.9771 86.2816 29.4884 84.7946 27.5249 76.248C25.8668 68.9906 28.5399 61.1915 31.6697 55.1605H31.6689C32.0477 54.4308 32.1768 53.599 32.0354 52.7903C31.8947 51.9815 31.4919 51.241 30.8882 50.6809L18.3129 38.993L18.2696 38.9546V38.9538C17.3211 38.0438 16.0101 37.6056 14.7007 37.7606C13.3904 37.9156 12.2201 38.6469 11.5143 39.7535C7.74129 45.7287 4.74504 52.1535 2.59457 58.8754C2.59457 58.8754 -6.73178 85.9896 9.97982 93.9099L9.9791 93.909Z" fill="white"/>
<path d="M96.1463 93.9049L85.0451 78.6013L89.3221 75.0433C90.2968 74.2315 90.9067 73.0689 91.0188 71.8105C91.1301 70.5521 90.7343 69.3014 89.9173 68.333L89.6143 67.9739V67.9747C89.3839 67.7007 89.0531 67.5296 88.6944 67.4982C88.3365 67.4667 87.9809 67.578 87.7049 67.8066L65.3731 86.3984C65.0971 86.627 64.9247 86.9554 64.893 87.3107C64.8613 87.6668 64.9734 88.0197 65.2046 88.2929L65.5076 88.652C66.3254 89.6196 67.4965 90.225 68.7634 90.3363C70.0312 90.4468 71.2911 90.0539 72.2667 89.2428L76.5437 85.6848L89.7744 99.2014C90.7445 100.191 92.3206 100.271 93.3867 99.384L94.5423 98.4233L95.6956 97.4626L95.6964 97.4634C96.7601 96.5764 96.9564 95.0256 96.1463 93.9054L96.1463 93.9049Z" fill="white"/>
<path d="M19.7667 31.8153C19.9553 32.908 20.4995 33.9085 21.3166 34.6644L67.8524 77.9158V77.9151C68.2149 78.2489 68.7707 78.2634 69.151 77.9496L71.1446 76.2929C71.5612 75.9461 71.6153 75.3299 71.2659 74.9163L30.7025 26.9249C29.7694 25.8207 29.815 24.1426 30.8996 23.1842C31.4345 22.71 32.141 22.4721 32.8568 22.5235C33.5726 22.5749 34.2366 22.9118 34.6981 23.4573L75.3467 71.5332C75.5137 71.732 75.7548 71.8563 76.0146 71.8793C76.2751 71.9015 76.534 71.8202 76.7335 71.6529L78.727 69.9963V69.997C79.112 69.6778 79.1947 69.1238 78.9195 68.7079L44.0849 15.7211C43.4773 14.7911 42.5799 14.0836 41.5286 13.7076L18.888 5.62918C18.0841 5.34144 17.1866 5.50027 16.5319 6.04508C15.8764 6.59064 15.5634 7.44009 15.7087 8.2764L19.7667 31.8153Z" fill="white"/>
</svg>
