<svg width="100" height="90" viewBox="0 0 100 90" fill="none" xmlns="http://www.w3.org/2000/svg">
<path d="M99.9336 85.7639L88.1352 36.825C87.8754 35.7201 86.5544 34.5913 85.4182 34.5913H64.8636C67.9943 31.3323 69.9158 25.4394 69.9158 20.3819C69.9158 9.42692 60.9817 0 50.0006 0C39.0171 0 30.0818 9.68621 30.0818 20.6412C30.0818 25.6998 32.0033 31.3335 35.134 34.5925H16.4509C15.3442 34.5925 13.9857 35.7133 13.6962 36.7773L0.0859698 86.2021C-0.114618 86.9376 0.0403824 88.08 0.503106 88.6837C0.969258 89.2884 1.68726 90 2.45087 90H97.5486C98.2974 90 99.0063 89.0417 99.4701 88.4563C99.9351 87.8731 100.107 86.4931 99.934 85.7645L99.9336 85.7639ZM50.001 9.2607C55.5775 9.2607 60.1136 13.7862 60.1136 19.3482C60.1136 24.9103 55.5775 29.4357 50.001 29.4357C44.4233 29.4357 39.8861 24.9103 39.8861 19.3482C39.8861 13.7862 44.4233 9.2607 50.001 9.2607Z" fill="white"/>
</svg>
